<svg width="512" height="512" viewBox="0 0 512 512" fill="none" xmlns="http://www.w3.org/2000/svg">
<rect width="512" height="512" fill="white"/>
<path fill-rule="evenodd" clip-rule="evenodd" d="M129.384 28.3373C125.827 31.4335 122.644 37.148 122.644 40.4405C122.644 41.1445 124.602 43.952 126.996 46.677L131.345 51.6335L131.948 75.1018C132.38 91.8741 132.085 98.8587 130.911 99.5841C130.01 100.142 119.906 100.723 108.46 100.878C97.0133 101.032 86.4045 101.791 84.8845 102.566C83.1213 103.465 78.2585 103.518 71.4561 102.712C42.5588 99.2911 32.388 100.84 26.6961 109.53C24.4922 112.893 24.3869 114.298 25.8444 120.814C27.6516 128.893 29.3039 130.831 38.2292 135.342C43.449 137.98 46.1406 138.262 62.4015 137.868C72.4642 137.625 83.1015 136.963 86.0377 136.397C92.9154 135.072 109.847 138.162 109.847 140.742C109.847 141.78 109.257 142.996 108.535 143.441C107.813 143.888 106.81 146.131 106.307 148.425C105.802 150.719 103.228 155.328 100.587 158.668C97.9447 162.007 94.6985 167.644 93.3733 171.192C92.0481 174.741 88.8146 180.311 86.187 183.571C83.5593 186.832 81.4094 190.22 81.4094 191.1C81.4094 191.981 78.2101 196.546 74.2999 201.247C70.3897 205.946 67.1904 210.295 67.1904 210.909C67.1904 211.524 64.3153 214.85 60.8032 218.302C57.2897 221.754 54.4104 224.981 54.4047 225.476C54.3791 227.527 24.7197 255.374 11.7363 265.534C-2.32913 276.543 -3.92881 287.041 7.89429 290.756C14.263 292.757 18.7122 292.701 20.9076 290.589C21.6512 289.873 23.3646 289.289 24.7169 289.289C26.0677 289.289 28.037 288.489 29.092 287.511C33.1544 283.743 40.1473 279.333 42.0583 279.333C43.1575 279.333 45.5903 278.214 47.4644 276.844C49.3385 275.476 51.8893 273.715 53.1349 272.933C60.6695 268.198 68.5938 262.471 73.2377 258.405C76.1725 255.835 79.0519 253.728 79.6363 253.724C80.2207 253.719 81.7947 251.787 83.1342 249.432C84.475 247.077 86.7145 244.754 88.1108 244.269C90.8949 243.305 115.535 218.338 115.535 216.482C115.535 215.85 116.34 215.332 117.322 215.332C118.305 215.332 121.164 213.092 123.677 210.355C126.189 207.617 128.494 205.377 128.8 205.377C129.329 205.377 130.277 222.85 130.074 228.844C130.02 230.408 129.556 235.208 129.043 239.51C128.528 243.813 128.194 251.493 128.298 256.577C128.403 261.662 127.495 269.636 126.277 274.298C123.384 285.392 123.486 291.948 126.663 299.045C130.526 307.675 135.031 310.606 144.169 310.436C148.362 310.358 154.033 309.282 156.77 308.046C159.507 306.81 164.306 305.102 167.434 304.249C170.989 303.281 173.651 301.514 174.531 299.537C175.306 297.798 177.044 296.024 178.391 295.596C182.152 294.402 182.878 286.649 181.049 267.197C179.917 255.154 179.848 248.668 180.829 246.833C181.677 245.248 181.796 242.459 181.116 240.048C179.923 235.818 180.34 192.706 181.585 191.459C183.304 189.741 202.217 206.909 202.315 210.276C202.339 211.101 205.763 215.2 209.924 219.386C217.374 226.881 217.613 226.995 225.876 226.965C237.068 226.924 243.551 223.954 248.38 216.655C251.894 211.343 252.217 209.882 251.372 203.12C250.037 192.432 246.539 186.162 239.193 181.296C235.7 178.98 230.198 175.198 226.968 172.892C223.736 170.585 219.577 168.227 217.726 167.651C215.873 167.075 212.757 165.483 210.802 164.114C208.847 162.744 203.728 161.249 199.427 160.793C195.126 160.336 189.528 159.548 186.985 159.042L182.364 158.12L182.386 148.682C182.398 143.49 182.878 138.566 183.452 137.74C184.888 135.675 215.813 134.639 238.659 135.891C245.994 136.292 248.124 135.824 252.592 132.826C255.822 130.658 258.184 127.761 258.689 125.346C259.143 123.179 260.071 121.061 260.752 120.64C262.528 119.542 262.278 115.224 260.213 111.316C257.503 106.189 250.384 98.7094 248.212 98.7094C247.149 98.7094 245.723 97.2431 245.04 95.4511C243.344 90.9881 240.9 89.2956 234.473 88.1365C230.018 87.333 228.024 87.7866 223.808 90.5685C217.607 94.6575 199.925 98.3965 190.597 97.5887L183.9 97.0098L184.627 86.8366C185.028 81.243 185.308 72.7096 185.249 67.8754C185.174 61.5408 185.949 57.6552 188.021 53.9645C189.602 51.1485 190.896 46.9814 190.896 44.703C190.896 40.0309 185.787 30.4465 183.29 30.4337C182.39 30.428 179.734 29.4125 177.388 28.1766C173.512 26.1343 159.61 25.4502 143.973 26.5325C142.018 26.6676 138.819 26.3604 136.863 25.8513C134.253 25.17 132.266 25.8313 129.384 28.3373ZM434.042 35.2764C433.18 36.1382 432.029 36.8465 431.481 36.8508C429.011 36.8707 419.822 43.6818 419.822 45.4923C419.822 46.8676 418.013 47.5659 414.134 47.6868C411.006 47.7849 406.366 48.095 403.825 48.378C398.425 48.9782 377.758 49.786 348.727 50.5341L328.109 51.0646L324.783 47.1535C322.955 45.003 320.532 43.2423 319.401 43.2423C318.269 43.2423 315.703 42.1657 313.697 40.8515C310.837 38.977 306.93 38.4935 295.634 38.6115C287.707 38.6954 280.502 38.1664 279.624 37.4368C277.428 35.6135 267.678 39.8233 267.678 42.5952C267.678 43.7828 266.718 45.1225 265.545 45.5719C261.941 46.9558 262.707 59.15 266.629 62.8364C269.166 65.2201 269.938 67.709 270.28 74.621C270.519 79.441 271.27 84.8469 271.95 86.6346C272.628 88.421 272.914 90.1532 272.584 90.4832C272.254 90.8132 271.689 95.7796 271.33 101.52C270.862 108.962 271.233 112.755 272.625 114.742C274.125 116.884 274.213 118.328 273.006 120.976C271.839 123.54 271.893 126.205 273.217 131.375C274.464 136.238 274.56 139.143 273.544 141.045C272.743 142.54 272.039 147.226 271.978 151.459C271.917 155.691 271.819 162.034 271.761 165.554C271.702 169.074 271.825 173.874 272.029 176.221C272.235 178.568 271.982 185.224 271.466 191.011C270.886 197.499 271.082 202.205 271.977 203.283C272.963 204.472 272.955 206.271 271.951 208.913C271.141 211.047 270.474 215.126 270.471 217.975C270.441 246.936 269.457 260.591 266.95 266.837C264.391 273.214 264.377 273.79 266.68 278.619C268.011 281.411 269.1 284.382 269.1 285.221C269.1 287.79 276.163 295.312 281.02 297.914C289.185 302.292 307.298 297.84 316.843 289.111C319.643 286.552 322.093 286.443 363.766 287.017C387.95 287.35 409.015 287.949 410.579 288.347C412.143 288.745 415.233 289.119 417.446 289.179C421.086 289.279 421.387 289.664 420.605 293.227C420.059 295.711 420.525 298.206 421.868 299.982C423.039 301.533 424.018 303.854 424.042 305.141C424.158 311.167 439.179 319.229 441.945 314.752C442.475 313.895 444.912 313.494 447.361 313.862C450.304 314.304 453.1 313.623 455.605 311.854C457.69 310.382 461.37 308.782 463.781 308.3C466.193 307.817 468.166 306.862 468.166 306.178C468.166 305.494 468.786 304.933 469.544 304.933C470.3 304.933 470.578 305.828 470.157 306.923C468.977 310.001 471.627 310.743 475.101 308.308C477.003 306.977 477.939 305.183 477.484 303.746C477.072 302.443 477.686 299.544 478.849 297.304C481.404 292.381 481.552 278.43 479.455 239.766C478.402 220.366 478.411 210.938 479.48 207.694C480.52 204.546 480.554 200.757 479.588 195.667C478.473 189.786 478.648 186.851 480.429 181.608C482.195 176.405 482.351 173.891 481.155 169.901C479.556 164.559 479.994 129.78 481.718 125.372C482.254 124.001 481.873 118.76 480.872 113.724C479.479 106.711 479.443 104.097 480.719 102.559C481.855 101.191 482.099 97.1748 481.488 89.9456C480.727 80.9486 481.051 78.2975 483.621 72.4877C487.325 64.1121 487.395 61.6617 484.049 57.3011C482.618 55.4351 481.039 52.7883 480.54 51.4201C480.039 50.052 478.719 48.9312 477.605 48.9312C476.491 48.9312 475.212 47.9712 474.761 46.7979C474.312 45.6245 472.89 44.6645 471.604 44.6645C467.893 44.6645 458.506 38.8291 457.786 36.0757C457.232 33.9537 455.484 33.5811 446.37 33.6408C440.451 33.6792 434.904 34.4145 434.042 35.2764ZM158.455 54.2802C159.483 55.5489 159.597 56.1519 158.708 55.62C157.819 55.0867 156.302 55.6043 155.335 56.7691C152.989 59.5965 150.554 59.4714 151.663 56.5814C152.342 54.8093 151.884 54.4509 149.682 55.0269C147.01 55.7253 145.874 54.6145 147.549 52.9391C149.254 51.2352 156.732 52.154 158.455 54.2802ZM459.127 55.3313C457.954 56.5046 456.551 57.4646 456.007 57.4646C455.464 57.4646 455.817 56.5046 456.791 55.3313C457.765 54.1579 459.168 53.1979 459.911 53.1979C460.653 53.1979 460.3 54.1579 459.127 55.3313ZM355.836 63.1536C355.836 63.9358 354.077 64.5118 351.926 64.4336L348.016 64.2928L351.57 63.1536C353.525 62.5278 355.284 61.9518 355.481 61.8736C355.677 61.7953 355.836 62.3713 355.836 63.1536ZM325.976 64.5758C325.976 65.358 325.298 65.998 324.47 65.998C323.643 65.998 323.36 65.358 323.843 64.5758C324.327 63.7936 325.004 63.1536 325.349 63.1536C325.695 63.1536 325.976 63.7936 325.976 64.5758ZM179.135 66.8571C178.663 67.3292 177.436 67.3805 176.411 66.9694C175.276 66.5157 175.613 66.1787 177.27 66.1104C178.768 66.0492 179.607 66.3849 179.135 66.8571ZM306.07 67.4203C306.07 68.2025 305.788 68.8425 305.443 68.8425C305.097 68.8425 304.42 68.2025 303.937 67.4203C303.453 66.638 303.736 65.998 304.564 65.998C305.391 65.998 306.07 66.638 306.07 67.4203ZM363.657 70.2647C363.173 71.047 362.138 71.687 361.356 71.687C360.574 71.687 360.329 71.047 360.813 70.2647C361.296 69.4825 362.331 68.8425 363.113 68.8425C363.895 68.8425 364.14 69.4825 363.657 70.2647ZM300.558 76.3334C299.153 77.7272 298.991 77.5636 299.762 75.537C300.297 74.1346 301.092 73.3453 301.529 73.7833C301.967 74.22 301.531 75.3677 300.558 76.3334ZM315.619 75.4544C315.886 76.2566 313.82 76.9976 311.029 77.1029C307.84 77.2223 306.291 76.7444 306.866 75.8157C307.368 75.0022 308.675 74.6808 309.768 75.1003C310.863 75.5213 311.757 75.1914 311.757 74.3679C311.757 72.5361 314.947 73.4335 315.619 75.4544ZM323.132 77.9348C323.132 79.2845 318.877 79.9644 318.117 78.7355C317.655 77.9875 318.595 77.3759 320.205 77.3759C321.814 77.3759 323.132 77.6276 323.132 77.9348ZM415.151 84.4671C421.364 84.4842 422.847 85.0062 424.311 87.6871C425.902 90.6055 426.807 112.125 425.397 113.505C423.578 115.284 336.308 117.499 328.77 115.957L323.944 114.97L323.86 102.217C323.813 95.2036 324.214 88.4935 324.749 87.3059C325.585 85.4528 330.971 85.1626 362.907 85.2494C383.36 85.3049 400.445 84.78 400.875 84.0832C401.306 83.3863 403.025 83.1843 404.697 83.6323C406.368 84.0817 411.073 84.4572 415.151 84.4671ZM223.599 124.937C223.599 125.282 222.96 125.959 222.177 126.443C221.395 126.926 220.756 126.643 220.756 125.816C220.756 124.988 221.395 124.31 222.177 124.31C222.96 124.31 223.599 124.591 223.599 124.937ZM391.384 132.843C391.384 133.625 391.102 134.265 390.756 134.265C390.411 134.265 389.734 133.625 389.251 132.843C388.767 132.061 389.05 131.421 389.878 131.421C390.705 131.421 391.384 132.061 391.384 132.843ZM310.335 134.265C310.335 135.047 309.734 135.687 308.997 135.687C308.261 135.687 307.264 135.047 306.781 134.265C306.297 133.483 306.9 132.843 308.119 132.843C309.337 132.843 310.335 133.483 310.335 134.265ZM396.811 150.164C401.462 149.007 406.225 148.911 412.61 149.847C417.636 150.584 422.23 150.89 422.82 150.526C424.928 149.223 425.835 153.175 425.792 163.472C425.741 175.974 424.909 179.117 421.6 179.32C420.231 179.404 408.24 179.91 394.955 180.442C381.671 180.976 370.049 182.035 369.132 182.797C368.215 183.558 367.123 183.629 366.708 182.957C366.291 182.283 359.355 181.865 351.296 182.028C343.235 182.193 333.384 181.997 329.403 181.594L322.167 180.86L322.783 166.452C323.12 158.527 323.62 151.814 323.892 151.535C324.163 151.255 333.221 151.003 344.022 150.976C354.821 150.948 364.797 150.514 366.189 150.014C367.582 149.513 373.544 149.715 379.438 150.462C387.025 151.424 392.096 151.338 396.811 150.164ZM154.086 160.275C152.925 161.436 152.504 161.276 152.504 159.676C152.504 156.849 154.417 154.936 155.124 157.056C155.424 157.957 154.956 159.405 154.086 160.275ZM164.591 157.021C165.074 157.803 164.434 158.443 163.169 158.443C161.903 158.443 161.263 157.803 161.747 157.021C162.23 156.239 162.87 155.599 163.169 155.599C163.467 155.599 164.107 156.239 164.591 157.021ZM171.784 169.227C174.309 171.285 174.322 171.405 171.939 170.649C170.507 170.194 168.747 169.821 168.029 169.821C167.311 169.821 166.723 169.181 166.723 168.399C166.723 166.339 168.623 166.649 171.784 169.227ZM458.213 168.399C458.213 169.181 457.535 169.821 456.707 169.821C455.88 169.821 455.597 169.181 456.08 168.399C456.563 167.617 457.24 166.977 457.586 166.977C457.931 166.977 458.213 167.617 458.213 168.399ZM156.77 169.821C156.77 170.603 156.169 171.243 155.432 171.243C154.696 171.243 153.699 170.603 153.215 169.821C152.732 169.039 153.335 168.399 154.553 168.399C155.772 168.399 156.77 169.039 156.77 169.821ZM160.053 177.372C159.617 178.079 158.741 177.82 158.108 176.797C157.475 175.773 157.316 174.355 157.753 173.648C158.189 172.941 159.065 173.2 159.698 174.223C160.331 175.247 160.49 176.665 160.053 177.372ZM108.607 183.688C110.412 185.99 110.345 186.02 107.715 184.09C106.15 182.943 104.605 181.823 104.278 181.601C103.952 181.38 104.355 181.199 105.171 181.199C105.987 181.199 107.534 182.32 108.607 183.688ZM152.504 184.043C152.504 184.826 151.826 185.466 150.999 185.466C150.171 185.466 149.888 184.826 150.372 184.043C150.855 183.261 151.532 182.621 151.877 182.621C152.223 182.621 152.504 183.261 152.504 184.043ZM166.723 186.093C166.723 186.438 166.084 187.115 165.301 187.599C164.519 188.083 163.88 187.799 163.88 186.972C163.88 186.144 164.519 185.466 165.301 185.466C166.084 185.466 166.723 185.747 166.723 186.093ZM289.007 203.16C289.007 203.505 288.367 204.182 287.585 204.666C286.803 205.149 286.163 204.866 286.163 204.039C286.163 203.211 286.803 202.532 287.585 202.532C288.367 202.532 289.007 202.814 289.007 203.16ZM467.357 206.661C466.983 207.035 465.573 206.188 464.222 204.778C461.877 202.329 461.907 202.298 464.903 204.097C466.626 205.134 467.731 206.287 467.357 206.661ZM156.77 205.377C156.77 206.159 156.13 206.799 155.348 206.799C154.566 206.799 153.926 206.159 153.926 205.377C153.926 204.595 154.566 203.955 155.348 203.955C156.13 203.955 156.77 204.595 156.77 205.377ZM172.411 205.377C172.411 206.159 171.771 206.799 170.989 206.799C170.207 206.799 169.567 206.159 169.567 205.377C169.567 204.595 170.207 203.955 170.989 203.955C171.771 203.955 172.411 204.595 172.411 205.377ZM469.588 210.982C469.588 211.719 468.948 212.716 468.166 213.199C467.384 213.683 466.744 213.08 466.744 211.861C466.744 210.642 467.384 209.644 468.166 209.644C468.948 209.644 469.588 210.245 469.588 210.982ZM461.028 213.233C460.039 214.425 458.86 215.031 458.406 214.579C457.954 214.126 458.526 213.161 459.676 212.433C462.686 210.528 463.08 210.761 461.028 213.233ZM383.563 215.227C392.166 215.204 401.124 215.119 403.47 215.037C405.816 214.953 411.762 215.122 416.683 215.411L425.63 215.937L424.881 232.206C424.468 241.153 423.83 248.776 423.462 249.145C423.093 249.512 417.166 250.063 410.288 250.371C403.41 250.678 396.822 251.006 395.649 251.102C394.476 251.197 387.758 251.274 380.719 251.272C344.218 251.262 333.295 251.097 328.109 250.482L322.421 249.806V232.924C322.421 216.813 322.551 216.068 325.265 216.58C331.665 217.787 360.941 216.389 362.529 214.801C363.037 214.294 364.457 214.192 365.687 214.573C366.916 214.954 374.961 215.249 383.563 215.227ZM455.369 228.928C455.369 230.146 454.729 230.749 453.947 230.266C453.165 229.782 452.525 228.785 452.525 228.049C452.525 227.312 453.165 226.71 453.947 226.71C454.729 226.71 455.369 227.709 455.369 228.928ZM446.838 229.555C446.838 230.337 446.159 230.977 445.332 230.977C444.504 230.977 444.221 230.337 444.705 229.555C445.188 228.773 445.865 228.133 446.211 228.133C446.556 228.133 446.838 228.773 446.838 229.555ZM162.293 245.721C162.162 248.125 161.993 248.237 161.478 246.266C160.723 243.376 159.419 243.119 157.134 245.404C155.913 246.626 155.695 246.312 156.261 244.147C157.298 240.185 162.52 241.547 162.293 245.721ZM296.119 245.845C292.316 247.95 290.987 247.747 292.503 245.295C293.018 244.46 294.842 243.8 296.556 243.827C299.56 243.877 299.544 243.948 296.119 245.845ZM391.384 269.545C391.384 270.327 390.744 270.572 389.962 270.088C389.18 269.605 388.54 268.569 388.54 267.787C388.54 267.005 389.18 266.76 389.962 267.244C390.744 267.728 391.384 268.763 391.384 269.545ZM233.091 308.231C230.346 310.541 228.835 313.398 228.317 317.261C227.643 322.284 228.039 323.296 231.879 326.368C235.659 329.388 242.686 334.499 247.064 337.408C247.847 337.929 252.239 342.996 256.824 348.667C261.406 354.337 265.626 358.978 266.201 358.978C266.775 358.978 269.686 363.937 272.668 370C278.837 382.542 284.25 390.267 286.868 390.267C287.854 390.267 289.455 391.227 290.429 392.4C291.623 393.84 294.832 394.534 300.29 394.534C315.059 394.534 325.279 386.905 329.372 372.829C333.259 359.45 329.474 347.805 317.587 336.578C313.24 332.47 309.212 329.111 308.636 329.111C308.062 329.111 305.488 327.282 302.92 325.048C300.351 322.812 295.914 320.555 293.061 320.032C290.208 319.508 286.268 317.817 284.306 316.274C282.344 314.729 279.635 313.467 278.286 313.467C276.938 313.467 273.66 312.123 271.001 310.478C267.866 308.541 264.965 307.793 262.744 308.351C260.862 308.823 258.949 308.608 258.496 307.873C258.041 307.138 256.562 306.51 255.208 306.479C253.856 306.448 249.229 306.07 244.928 305.639C238.12 304.956 236.587 305.292 233.091 308.231ZM145.507 319.211C138.908 325.745 138.238 329.706 142.76 335.454C145.632 339.107 145.76 340.365 144.913 356.624C144.397 366.549 144.574 374.8 145.334 375.996C146.167 377.313 146.11 378.738 145.179 379.861C144.257 380.971 143.782 391.668 143.916 408.354C144.206 444.673 144.909 451.144 149.1 456.128C150.973 458.354 152.504 461.086 152.504 462.199C152.504 463.313 153.09 464.223 153.805 464.223C154.522 464.223 156.919 466.143 159.133 468.49C161.347 470.837 164.195 472.757 165.461 472.757C166.726 472.757 169.466 474.098 171.549 475.738C174.449 478.017 178.48 478.986 188.713 479.864C196.07 480.494 202.898 481.509 203.886 482.121C204.874 482.732 214.993 483.51 226.372 483.85C262.962 484.945 264.796 485.043 265.717 485.966C266.217 486.466 269.262 486.545 272.484 486.144C275.706 485.743 293.379 485.195 311.757 484.928C330.135 484.661 347.091 484.032 349.438 483.531C351.784 483.029 363.829 482.089 376.203 481.442C401.328 480.129 405.432 478.632 407.167 470.147C407.671 467.681 408.866 464.721 409.821 463.569C411.405 461.659 411.339 456.301 409.55 441.857C409.334 440.116 406.983 436.706 404.326 434.278C397.58 428.117 392.805 420.674 392.805 416.321C392.805 414.293 392.068 407.094 391.166 400.322L389.528 388.01L382.635 384.161C378.844 382.044 374.928 380.311 373.933 380.311C372.939 380.311 369.869 382.172 367.11 384.446C362.991 387.842 362.031 389.658 361.74 394.608C361.544 397.922 360.456 402.43 359.321 404.625C358.187 406.819 357.258 409.678 357.258 410.978C357.258 414.255 346.423 426.89 342.612 428.057C340.892 428.585 338.588 429.737 337.494 430.619C335.298 432.388 314.82 435.699 300.382 436.618C281.141 437.844 258.872 437.906 258.15 436.739C257.738 436.07 255.393 435.887 252.94 436.33C246.941 437.416 215.493 433.712 209.828 431.253C207.339 430.172 203.963 427.588 202.331 425.51C199.576 422.009 199.366 419.99 199.447 397.822C199.601 355.34 199.933 349.921 202.648 345.778C204.663 342.702 204.89 340.849 203.835 336.15C202.496 330.186 198.79 324.844 195.995 324.844C195.13 324.844 193.687 323.664 192.785 322.22C190.893 319.19 179.471 316.581 164.96 315.864C159.689 315.604 154.944 314.958 154.415 314.429C152.681 312.696 151.382 313.393 145.507 319.211ZM388.597 327.769C385.891 329.253 382.929 331.923 382.013 333.701C380.26 337.107 380.924 346.178 382.928 346.178C383.573 346.178 387.058 348.738 390.673 351.867C394.287 354.996 397.686 357.57 398.224 357.588C399.926 357.644 413.679 370.777 419.786 378.178C429.141 389.518 431.018 391.94 436.864 400.223C439.902 404.525 443.545 409.645 444.959 411.601C446.374 413.556 447.577 415.476 447.632 415.867C448.467 421.804 452.062 428.454 455.503 430.43C457.775 431.734 459.635 433.692 459.635 434.782C459.635 438.589 464.7 441.203 475.379 442.905L486.146 444.621L494.385 439.971C501.778 435.797 503.115 434.291 507.433 425.278C513.193 413.258 513.404 408.779 508.633 399.813C506.646 396.08 505.355 392.486 505.763 391.824C506.172 391.163 504.537 387.905 502.131 384.582C496.215 376.412 475.495 356.134 473.065 356.134C471.988 356.134 469.007 354.3 466.439 352.059C463.869 349.817 460.168 347.494 458.213 346.895C456.258 346.295 453.059 344.71 451.103 343.372C446.277 340.069 438.247 336.222 436.175 336.222C435.243 336.222 433.323 334.942 431.908 333.378C430.231 331.525 427.528 330.533 424.151 330.533C421.3 330.533 418.361 329.956 417.618 329.249C416.875 328.542 413.387 327.612 409.868 327.181C406.349 326.75 401.23 326.099 398.493 325.735C395.228 325.298 391.823 325.999 388.597 327.769ZM89.2896 327.303C81.7407 329.222 75.9564 337.218 77.593 343.476C78.4319 346.687 77.1835 350.332 73.2121 356.262C64.4362 369.369 62.9247 371.923 62.9247 373.657C62.9247 375.79 48.1071 395.609 38.4822 406.35C35.1109 410.11 29.3138 415.178 25.5998 417.611C21.8858 420.044 18.7776 422.728 18.6937 423.573C17.5405 435.211 17.9728 442.644 20.0004 446.09C21.2673 448.242 23.0461 450.001 23.9547 450.001C24.8633 450.001 26.4203 450.981 27.4142 452.18C28.546 453.542 31.1737 454.242 34.4384 454.05C37.4798 453.871 41.08 454.741 43.0749 456.138C44.9561 457.456 48.1938 458.534 50.2698 458.534C58.703 458.534 73.0628 449.627 80.6472 439.691C83.4342 436.04 86.5866 432.547 87.6544 431.927C90.3518 430.361 97.0503 420.184 97.0503 417.652C97.0503 416.505 98.6499 413.666 100.605 411.34C102.56 409.016 104.576 405.404 105.083 403.313C105.59 401.223 106.87 398.249 107.926 396.706C108.983 395.164 109.847 392.691 109.847 391.212C109.847 389.731 111.042 386.194 112.503 383.349C116.866 374.852 120.04 359.79 118.383 355.435C117.598 353.37 116.957 350.073 116.957 348.109C116.957 344.444 113.156 339.951 102.584 331.116C96.9295 326.39 95.0298 325.846 89.2896 327.303ZM175.255 344.756C175.255 345.538 174.577 346.178 173.749 346.178C172.921 346.178 172.638 345.538 173.122 344.756C173.605 343.973 174.282 343.333 174.628 343.333C174.973 343.333 175.255 343.973 175.255 344.756ZM443.283 349.022C442.761 350.665 443.027 351.867 443.911 351.867C444.833 351.867 445.296 354.414 445.073 358.26C444.573 366.947 442.977 366.344 442.266 357.2C441.709 350.017 442.148 346.178 443.53 346.178C443.891 346.178 443.779 347.458 443.283 349.022ZM431.197 353.916C431.197 354.262 430.557 354.939 429.775 355.422C428.993 355.906 428.353 355.623 428.353 354.795C428.353 353.967 428.993 353.289 429.775 353.289C430.557 353.289 431.197 353.571 431.197 353.916ZM82.8313 363.245C82.8313 364.027 82.153 364.667 81.3255 364.667C80.4979 364.667 80.215 364.027 80.6984 363.245C81.1819 362.462 81.8587 361.822 82.2043 361.822C82.5498 361.822 82.8313 362.462 82.8313 363.245ZM88.5189 365.378C88.5189 366.551 88.2672 367.511 87.9601 367.511C87.6529 367.511 87.033 366.551 86.5823 365.378C86.1329 364.205 86.3846 363.245 87.1411 363.245C87.899 363.245 88.5189 364.205 88.5189 365.378ZM443.994 387.389C443.994 389.745 440.852 390.661 439.592 388.671C437.246 384.969 438.03 382.908 441.15 384.578C442.714 385.416 443.994 386.68 443.994 387.389ZM89.3194 397.563C92.3011 400.74 92.678 401.592 90.6361 400.538C87.0728 398.701 81.9028 393.112 83.7669 393.112C84.5234 393.112 87.023 395.114 89.3194 397.563ZM378.586 439.25C378.586 439.596 377.947 440.273 377.165 440.756C376.383 441.24 375.743 440.957 375.743 440.129C375.743 439.301 376.383 438.623 377.165 438.623C377.947 438.623 378.586 438.905 378.586 439.25ZM358.772 457.513C356.166 460.03 354.534 461.13 355.146 459.957C356.969 456.462 361.952 451.378 362.759 452.185C363.173 452.598 361.379 454.996 358.772 457.513ZM290.215 465.149C290.49 465.318 290.268 466.177 289.723 467.058C289.051 468.147 288.108 467.834 286.783 466.086C284.027 462.451 284.279 460.678 287.229 462.936C288.597 463.983 289.942 464.978 290.215 465.149ZM266.212 467.779C266.212 468.561 265.592 468.241 264.834 467.068C264.077 465.894 263.457 464.294 263.457 463.512C263.457 462.73 264.077 463.05 264.834 464.223C265.592 465.397 266.212 466.997 266.212 467.779ZM303.226 463.292C303.226 463.562 301.854 465.001 300.174 466.492C297.14 469.187 297.133 469.184 298.804 466.001C300.189 463.359 303.226 461.498 303.226 463.292ZM252.785 472.91C252.895 474.389 252.451 475.601 251.8 475.601C251.149 475.601 250.615 474.278 250.615 472.663C250.615 471.047 249.957 468.328 249.152 466.618C247.834 463.821 247.932 463.845 250.139 466.866C251.486 468.709 252.677 471.43 252.785 472.91ZM266.256 477.734C266.256 478.908 265.617 479.868 264.834 479.868C264.052 479.868 263.413 478.908 263.413 477.734C263.413 476.561 264.052 475.601 264.834 475.601C265.617 475.601 266.256 476.561 266.256 477.734Z" fill="black"/>
</svg>
